<svg width="300" height="600" viewBox="0 0 300 600" xmlns="http://www.w3.org/2000/svg">
  <defs>
    <linearGradient id="bgGradient" x1="0%" y1="0%" x2="100%" y2="100%">
      <stop offset="0%" style="stop-color:#4ECDC4;stop-opacity:0.1" />
      <stop offset="100%" style="stop-color:#44A08D;stop-opacity:0.1" />
    </linearGradient>
  </defs>
  <rect width="300" height="600" fill="url(#bgGradient)"/>
  
  <!-- Status Bar -->
  <rect x="0" y="0" width="300" height="40" fill="#4ECDC4"/>
  <text x="150" y="25" text-anchor="middle" fill="white" font-family="Arial" font-size="12">FinanceFlow</text>
  
  <!-- Investment Overview -->
  <rect x="20" y="60" width="260" height="120" fill="white" rx="15"/>
  <text x="150" y="85" text-anchor="middle" fill="#4ECDC4" font-family="Arial" font-size="16" font-weight="bold">Portfolio Value</text>
  <text x="150" y="110" text-anchor="middle" fill="#333" font-family="Arial" font-size="28" font-weight="bold">$45,230</text>
  <text x="150" y="130" text-anchor="middle" fill="#666" font-family="Arial" font-size="12">+$2,450 this month</text>
  <text x="150" y="145" text-anchor="middle" fill="#4ECDC4" font-family="Arial" font-size="12">+5.7%</text>
  
  <!-- Investment Chart -->
  <rect x="20" y="200" width="260" height="120" fill="white" rx="15"/>
  <text x="150" y="225" text-anchor="middle" fill="#4ECDC4" font-family="Arial" font-size="16" font-weight="bold">Performance</text>
  
  <!-- Chart Line -->
  <path d="M40 280 L80 260 L120 270 L160 250 L200 240 L240 230 L280 220" stroke="#4ECDC4" stroke-width="3" fill="none"/>
  <circle cx="40" cy="280" r="3" fill="#4ECDC4"/>
  <circle cx="80" cy="260" r="3" fill="#4ECDC4"/>
  <circle cx="120" cy="270" r="3" fill="#4ECDC4"/>
  <circle cx="160" cy="250" r="3" fill="#4ECDC4"/>
  <circle cx="200" cy="240" r="3" fill="#4ECDC4"/>
  <circle cx="240" cy="230" r="3" fill="#4ECDC4"/>
  <circle cx="280" cy="220" r="3" fill="#4ECDC4"/>
  
  <text x="150" y="320" text-anchor="middle" fill="#666" font-family="Arial" font-size="12">6 Month Trend</text>
  
  <!-- Holdings -->
  <rect x="20" y="340" width="260" height="200" fill="white" rx="15"/>
  <text x="150" y="365" text-anchor="middle" fill="#4ECDC4" font-family="Arial" font-size="16" font-weight="bold">Holdings</text>
  
  <rect x="30" y="380" width="240" height="40" fill="#f8f9fa" rx="8"/>
  <text x="50" y="395" text-anchor="start" fill="#333" font-family="Arial" font-size="12" font-weight="bold">AAPL</text>
  <text x="50" y="410" text-anchor="start" fill="#666" font-family="Arial" font-size="10">Apple Inc.</text>
  <text x="250" y="395" text-anchor="end" fill="#333" font-family="Arial" font-size="12" font-weight="bold">$12,450</text>
  <text x="250" y="410" text-anchor="end" fill="#4ECDC4" font-family="Arial" font-size="10">+8.2%</text>
  
  <rect x="30" y="430" width="240" height="40" fill="#f8f9fa" rx="8"/>
  <text x="50" y="445" text-anchor="start" fill="#333" font-family="Arial" font-size="12" font-weight="bold">TSLA</text>
  <text x="50" y="460" text-anchor="start" fill="#666" font-family="Arial" font-size="10">Tesla Inc.</text>
  <text x="250" y="445" text-anchor="end" fill="#333" font-family="Arial" font-size="12" font-weight="bold">$8,920</text>
  <text x="250" y="460" text-anchor="end" fill="#4ECDC4" font-family="Arial" font-size="10">+12.5%</text>
  
  <rect x="30" y="480" width="240" height="40" fill="#f8f9fa" rx="8"/>
  <text x="50" y="495" text-anchor="start" fill="#333" font-family="Arial" font-size="12" font-weight="bold">SPY</text>
  <text x="50" y="510" text-anchor="start" fill="#666" font-family="Arial" font-size="10">S&P 500 ETF</text>
  <text x="250" y="495" text-anchor="end" fill="#333" font-family="Arial" font-size="12" font-weight="bold">$23,860</text>
  <text x="250" y="510" text-anchor="end" fill="#4ECDC4" font-family="Arial" font-size="10">+3.8%</text>
  
  <!-- Bottom Navigation -->
  <rect x="0" y="560" width="300" height="40" fill="white"/>
  <circle cx="75" cy="580" r="15" fill="#ddd"/>
  <circle cx="150" cy="580" r="15" fill="#ddd"/>
  <circle cx="225" cy="580" r="15" fill="#4ECDC4"/>
</svg> 