<svg width="300" height="600" viewBox="0 0 300 600" xmlns="http://www.w3.org/2000/svg">
  <defs>
    <linearGradient id="bgGradient" x1="0%" y1="0%" x2="100%" y2="100%">
      <stop offset="0%" style="stop-color:#667eea;stop-opacity:0.1" />
      <stop offset="100%" style="stop-color:#764ba2;stop-opacity:0.1" />
    </linearGradient>
  </defs>
  <rect width="300" height="600" fill="url(#bgGradient)"/>
  
  <!-- Status Bar -->
  <rect x="0" y="0" width="300" height="40" fill="#667eea"/>
  <text x="150" y="25" text-anchor="middle" fill="white" font-family="Arial" font-size="12">TaskMaster</text>
  
  <!-- Today's Tasks -->
  <rect x="20" y="60" width="260" height="80" fill="white" rx="15"/>
  <text x="150" y="85" text-anchor="middle" fill="#667eea" font-family="Arial" font-size="16" font-weight="bold">Today's Tasks</text>
  <text x="150" y="105" text-anchor="middle" fill="#666" font-family="Arial" font-size="12">5 tasks • 2 completed</text>
  <text x="150" y="120" text-anchor="middle" fill="#667eea" font-family="Arial" font-size="12">40% done</text>
  
  <!-- Task List -->
  <rect x="20" y="160" width="260" height="300" fill="white" rx="15"/>
  <text x="150" y="185" text-anchor="middle" fill="#667eea" font-family="Arial" font-size="16" font-weight="bold">My Tasks</text>
  
  <rect x="30" y="200" width="240" height="50" fill="#f8f9fa" rx="8"/>
  <circle cx="50" cy="225" r="8" fill="#667eea"/>
  <text x="70" y="215" text-anchor="start" fill="#333" font-family="Arial" font-size="12" font-weight="bold">Review project proposal</text>
  <text x="70" y="230" text-anchor="start" fill="#666" font-family="Arial" font-size="10">Due: Today, 3:00 PM</text>
  <text x="250" y="225" text-anchor="end" fill="#667eea" font-family="Arial" font-size="10">High</text>
  
  <rect x="30" y="260" width="240" height="50" fill="#f8f9fa" rx="8"/>
  <circle cx="50" cy="285" r="8" fill="#667eea"/>
  <text x="70" y="275" text-anchor="start" fill="#333" font-family="Arial" font-size="12" font-weight="bold">Team meeting prep</text>
  <text x="70" y="290" text-anchor="start" fill="#666" font-family="Arial" font-size="10">Due: Tomorrow, 10:00 AM</text>
  <text x="250" y="285" text-anchor="end" fill="#667eea" font-family="Arial" font-size="10">Medium</text>
  
  <rect x="30" y="320" width="240" height="50" fill="#f8f9fa" rx="8"/>
  <circle cx="50" cy="345" r="8" fill="#ddd"/>
  <text x="70" y="335" text-anchor="start" fill="#333" font-family="Arial" font-size="12" font-weight="bold" style="text-decoration: line-through;">Send weekly report</text>
  <text x="70" y="350" text-anchor="start" fill="#666" font-family="Arial" font-size="10">Completed: 2:30 PM</text>
  <text x="250" y="345" text-anchor="end" fill="#4ECDC4" font-family="Arial" font-size="10">Done</text>
  
  <rect x="30" y="380" width="240" height="50" fill="#f8f9fa" rx="8"/>
  <circle cx="50" cy="405" r="8" fill="#ddd"/>
  <text x="70" y="395" text-anchor="start" fill="#333" font-family="Arial" font-size="12" font-weight="bold" style="text-decoration: line-through;">Call client</text>
  <text x="70" y="410" text-anchor="start" fill="#666" font-family="Arial" font-size="10">Completed: 11:15 AM</text>
  <text x="250" y="405" text-anchor="end" fill="#4ECDC4" font-family="Arial" font-size="10">Done</text>
  
  <rect x="30" y="440" width="240" height="50" fill="#f8f9fa" rx="8"/>
  <circle cx="50" cy="465" r="8" fill="#667eea"/>
  <text x="70" y="455" text-anchor="start" fill="#333" font-family="Arial" font-size="12" font-weight="bold">Update documentation</text>
  <text x="70" y="470" text-anchor="start" fill="#666" font-family="Arial" font-size="10">Due: Friday, 5:00 PM</text>
  <text x="250" y="465" text-anchor="end" fill="#667eea" font-family="Arial" font-size="10">Low</text>
  
  <!-- Bottom Navigation -->
  <rect x="0" y="560" width="300" height="40" fill="white"/>
  <circle cx="75" cy="580" r="15" fill="#667eea"/>
  <circle cx="150" cy="580" r="15" fill="#ddd"/>
  <circle cx="225" cy="580" r="15" fill="#ddd"/>
</svg> 